<svg width="150" height="110" xmlns="http://www.w3.org/2000/svg">
 <g>
  <title>background</title>
  <rect fill="none" id="canvas_background" height="112" width="152" y="-1" x="-1"/>
  <g display="none" id="canvasGrid">
   <rect fill="url(#gridpattern)" stroke-width="0" y="0" x="0" height="100%" width="100%" id="svg_2"/>
  </g>
 </g>

 <g>
  <title>Layer 1</title>
  <path stroke="#000" opacity="0.55" id="svg_1" d="m75.00001,5.77306c-21.26128,0 -38.5,12.92854 -38.5,28.87782c0,9.12268 5.65904,17.25091 14.46981,22.54112c-1.25365,4.69016 -3.75551,9.88489 -8.59097,14.47941c0,0 11.28698,-0.84315 19.25916,-9.96707c0.45896,0.12704 0.93402,0.22267 1.39732,0.33997c-0.4354,-1.46626 -0.69174,-2.99052 -0.69174,-4.57647c0,-10.76066 10.61569,-19.18653 24.17392,-19.18653c9.73836,0 17.93259,4.36352 21.78992,10.8018c3.28372,-4.24986 5.19254,-9.17231 5.19254,-14.4359c0,-15.94561 -17.23871,-28.87415 -38.49998,-28.87415l0,0l0.00001,0zm32.87741,51.69724c0,-8.84691 -9.56145,-16.02429 -21.36313,-16.02429c-11.79524,0 -21.36208,7.17738 -21.36208,16.02429c0,8.85165 9.56684,16.02546 21.36208,16.02546c2.61231,0 5.1003,-0.36899 7.41347,-1.01252c4.42253,5.06518 10.68528,5.53094 10.68528,5.53094c-2.68199,-2.55019 -4.06753,-5.43184 -4.76464,-8.0364c4.88586,-2.93238 8.02901,-7.44235 8.02901,-12.50747l0,0z" stroke-width="2" fill="#fff"/>
  <text xml:space="preserve" text-anchor="start" font-family="Helvetica, Arial, sans-serif" font-size="16" id="svg_3" y="101.51152" x="15.14844" stroke-opacity="null" stroke-width="0" stroke="#000" fill="#000000" opacity="0.5">Start a new Chat</text>
 </g>
</svg>